<svg width="57" height="57" viewBox="0 0 57 57" fill="none" xmlns="http://www.w3.org/2000/svg">
<path d="M48.4945 0H9.83427C9.51632 0 9.25092 0.391875 9.25092 0.856781V55.9998C9.25092 56.4674 9.51632 56.8602 9.83427 56.8602H48.4945C48.5794 56.8591 48.6625 56.8351 48.7349 56.7907C48.8073 56.7463 48.8664 56.6833 48.906 56.6081C48.9131 56.6012 48.9188 56.5931 48.9229 56.5841C49.0182 56.446 49.0779 56.251 49.0779 56.0007V0.857672C49.077 0.391875 48.8125 0 48.4945 0Z" fill="#25333A"/>
<path d="M47.0651 23.0947H11.1382C10.8452 23.0947 10.5967 23.3272 10.5967 23.6024V56.3542C10.5967 56.6277 10.8452 56.861 11.1382 56.861H47.066C47.2024 56.864 47.3346 56.8139 47.4347 56.7212C47.4401 56.7194 47.4436 56.7132 47.4436 56.7132C47.4961 56.6692 47.538 56.6141 47.5664 56.5518C47.5948 56.4896 47.6088 56.4217 47.6075 56.3533V23.6015C47.6066 23.3263 47.3581 23.0947 47.0651 23.0947Z" fill="#3F565F"/>
<path d="M20.1806 25.2048H14.1431C14.0923 25.2048 14.0505 25.244 14.0505 25.2903V30.7953C14.0505 30.8416 14.0914 30.8817 14.1431 30.8817H20.1798C20.2028 30.8825 20.2252 30.8742 20.2421 30.8585L20.243 30.8568L20.2466 30.8559C20.2545 30.8481 20.2609 30.8388 20.2652 30.8286C20.2694 30.8183 20.2716 30.8073 20.2715 30.7962V25.2912C20.2724 25.244 20.2296 25.2048 20.1806 25.2048ZM27.7964 25.2048H21.7579C21.709 25.2048 21.6671 25.244 21.6671 25.2903V30.7953C21.6678 30.8188 21.6777 30.841 21.6947 30.8572C21.7118 30.8734 21.7345 30.8822 21.7579 30.8817H27.7964C27.8078 30.8823 27.8192 30.8805 27.83 30.8766C27.8407 30.8726 27.8505 30.8664 27.8587 30.8585L27.8605 30.8568L27.8641 30.8559C27.8721 30.8481 27.8784 30.8388 27.8827 30.8286C27.887 30.8183 27.8891 30.8073 27.889 30.7962V25.2912C27.889 25.244 27.8463 25.2048 27.7964 25.2048ZM35.2563 25.1514H29.2196C29.1697 25.1514 29.127 25.1906 29.127 25.2378V30.7428C29.127 30.7891 29.1697 30.8283 29.2196 30.8283H35.2563C35.2792 30.8293 35.3015 30.8213 35.3186 30.806L35.3222 30.8042L35.3239 30.8024C35.3317 30.7948 35.3379 30.7856 35.342 30.7755C35.3462 30.7654 35.3482 30.7546 35.348 30.7436V25.2387C35.3478 25.2269 35.3452 25.2153 35.3405 25.2045C35.3357 25.1938 35.3289 25.184 35.3203 25.1759C35.3118 25.1678 35.3017 25.1614 35.2908 25.1572C35.2798 25.153 35.268 25.1511 35.2563 25.1514ZM42.7411 25.1514H36.7035C36.6536 25.1514 36.6109 25.1906 36.6109 25.2378V30.7428C36.6109 30.7891 36.6536 30.8283 36.7035 30.8283H42.7411C42.7639 30.8291 42.7863 30.8211 42.8034 30.806L42.807 30.8042L42.8088 30.8024C42.8241 30.7867 42.8327 30.7656 42.8328 30.7436V25.2387C42.8337 25.1915 42.7927 25.1514 42.7411 25.1514ZM20.1806 33.3238H14.1431C14.0923 33.3238 14.0505 33.363 14.0505 33.4093V38.9142C14.0505 38.9606 14.0914 39.0006 14.1431 39.0006H20.1798C20.2027 39.0011 20.225 38.9928 20.2421 38.9775L20.243 38.9757L20.2466 38.9739C20.2545 38.9663 20.2608 38.9572 20.2651 38.9471C20.2694 38.937 20.2716 38.9261 20.2715 38.9151V33.4102C20.2724 33.363 20.2296 33.3238 20.1806 33.3238ZM27.7964 33.3238H21.7579C21.709 33.3238 21.6671 33.363 21.6671 33.4093V38.9142C21.6678 38.9377 21.6777 38.9599 21.6947 38.9761C21.7118 38.9923 21.7345 39.0011 21.7579 39.0006H27.7964C27.8194 39.0014 27.8418 38.9931 27.8587 38.9775L27.8605 38.9757L27.8641 38.9739C27.872 38.9663 27.8784 38.9572 27.8826 38.9471C27.8869 38.937 27.8891 38.9261 27.889 38.9151V33.4102C27.889 33.363 27.8463 33.3238 27.7964 33.3238ZM35.2563 33.3238H29.2196C29.1697 33.3238 29.127 33.363 29.127 33.4093V38.9142C29.127 38.9606 29.1697 39.0006 29.2196 39.0006H35.2563C35.2793 39.0014 35.3017 38.9931 35.3186 38.9775L35.3222 38.9757L35.3239 38.9739C35.3318 38.9663 35.338 38.9571 35.3421 38.947C35.3463 38.9369 35.3483 38.9261 35.348 38.9151V33.4102C35.3476 33.3985 35.345 33.387 35.3402 33.3763C35.3354 33.3656 35.3285 33.356 35.32 33.348C35.3115 33.3399 35.3015 33.3337 35.2905 33.3295C35.2796 33.3254 35.268 33.3234 35.2563 33.3238ZM42.7411 33.3238H36.7035C36.6536 33.3238 36.6109 33.363 36.6109 33.4093V38.9142C36.6109 38.9606 36.6536 39.0006 36.7035 39.0006H42.7411C42.7641 39.0012 42.7864 38.993 42.8034 38.9775L42.807 38.9757L42.8088 38.9739C42.8164 38.9662 42.8225 38.957 42.8266 38.9469C42.8308 38.9368 42.8329 38.926 42.8328 38.9151V33.4102C42.8337 33.363 42.7927 33.3238 42.7411 33.3238ZM20.1806 41.0758H14.1431C14.0923 41.0758 14.0505 41.115 14.0505 41.1613V46.6671C14.0505 46.7134 14.0914 46.7526 14.1431 46.7526H20.1798C20.2026 46.7533 20.2249 46.7454 20.2421 46.7304L20.243 46.7286L20.2466 46.7268C20.2545 46.7192 20.2608 46.7101 20.2651 46.7C20.2693 46.6899 20.2715 46.679 20.2715 46.668V41.1622C20.2724 41.115 20.2296 41.0758 20.1806 41.0758ZM27.7964 41.0758H21.7579C21.709 41.0758 21.6671 41.115 21.6671 41.1613V46.6671C21.6671 46.7134 21.7081 46.7526 21.7579 46.7526H27.7964C27.8193 46.7537 27.8417 46.7457 27.8587 46.7304L27.8605 46.7286L27.8641 46.7268C27.872 46.7192 27.8783 46.7101 27.8826 46.7C27.8869 46.6899 27.889 46.679 27.889 46.668V41.1622C27.889 41.115 27.8463 41.0758 27.7964 41.0758ZM35.2563 41.0758H29.2196C29.1697 41.0758 29.127 41.115 29.127 41.1613V46.6671C29.127 46.7134 29.1697 46.7526 29.2196 46.7526H35.2563C35.2792 46.7537 35.3015 46.7457 35.3186 46.7304L35.3222 46.7286C35.3222 46.7268 35.3239 46.7268 35.3239 46.7268C35.3317 46.7192 35.3379 46.71 35.342 46.6999C35.3462 46.6898 35.3482 46.6789 35.348 46.668V41.1622C35.3476 41.1505 35.345 41.139 35.3402 41.1283C35.3354 41.1176 35.3285 41.108 35.32 41.1C35.3115 41.0919 35.3015 41.0857 35.2905 41.0815C35.2796 41.0774 35.268 41.0754 35.2563 41.0758ZM42.7411 41.0758H36.7035C36.6536 41.0758 36.6109 41.115 36.6109 41.1613V46.6671C36.6109 46.7134 36.6536 46.7526 36.7035 46.7526H42.7411C42.7639 46.7535 42.7863 46.7455 42.8034 46.7304L42.807 46.7286C42.807 46.7268 42.8088 46.7268 42.8088 46.7268C42.8241 46.7111 42.8327 46.69 42.8328 46.668V41.1622C42.8337 41.115 42.7927 41.0758 42.7411 41.0758ZM20.1806 48.6621H14.1431C14.0923 48.6621 14.0505 48.7013 14.0505 48.7476V54.2526C14.0505 54.2989 14.0914 54.339 14.1431 54.339H20.1798C20.2027 54.3394 20.225 54.3311 20.2421 54.3158L20.243 54.314L20.2466 54.3123C20.2545 54.3047 20.2608 54.2956 20.2651 54.2855C20.2694 54.2753 20.2716 54.2645 20.2715 54.2535V48.7485C20.2724 48.7013 20.2296 48.6621 20.1806 48.6621ZM27.7964 48.6621H21.7579C21.709 48.6621 21.6671 48.7013 21.6671 48.7476V54.2526C21.6678 54.276 21.6777 54.2983 21.6947 54.3145C21.7118 54.3306 21.7345 54.3395 21.7579 54.339H27.7964C27.8194 54.3398 27.8418 54.3315 27.8587 54.3158L27.8605 54.314L27.8641 54.3123C27.872 54.3047 27.8784 54.2956 27.8826 54.2855C27.8869 54.2753 27.8891 54.2645 27.889 54.2535V48.7485C27.889 48.7013 27.8463 48.6621 27.7964 48.6621ZM35.2563 48.6621H29.2196C29.1697 48.6621 29.127 48.7013 29.127 48.7476V54.2526C29.127 54.2989 29.1697 54.339 29.2196 54.339H35.2563C35.2793 54.3398 35.3017 54.3315 35.3186 54.3158L35.3222 54.314C35.3222 54.3123 35.3239 54.3123 35.3239 54.3123C35.3318 54.3046 35.338 54.2955 35.3421 54.2854C35.3463 54.2753 35.3483 54.2644 35.348 54.2535V48.7485C35.3476 48.7368 35.345 48.7253 35.3402 48.7146C35.3354 48.704 35.3285 48.6943 35.32 48.6863C35.3115 48.6783 35.3015 48.672 35.2905 48.6679C35.2796 48.6637 35.268 48.6618 35.2563 48.6621Z" fill="#799999"/>
<path d="M42.7411 48.6621H36.7035C36.6537 48.6621 36.6109 48.7013 36.6109 48.7476V54.2526C36.6109 54.2989 36.6537 54.339 36.7035 54.339H42.7411C42.7641 54.3396 42.7864 54.3313 42.8034 54.3158L42.807 54.314C42.807 54.3122 42.8088 54.3122 42.8088 54.3122C42.8164 54.3045 42.8225 54.2953 42.8266 54.2852C42.8308 54.2752 42.8329 54.2644 42.8328 54.2535V48.7485C42.8337 48.7013 42.7927 48.6621 42.7411 48.6621Z" fill="#EE4237"/>
<path d="M45.2126 5.65234H12.9898C12.7279 5.65234 12.5044 5.74319 12.5044 5.84828V18.5237C12.5044 18.6279 12.7279 18.7196 12.9898 18.7196H45.2037C45.3189 18.7224 45.4336 18.7028 45.5412 18.6617C45.5493 18.659 45.5546 18.6572 45.5599 18.6572C45.6374 18.6261 45.69 18.5798 45.69 18.5237V5.84828C45.6891 5.74319 45.4655 5.65234 45.2037 5.65234" fill="#5F9999"/>
</svg>
