<svg width="591" height="558" viewBox="0 0 591 558" fill="none" xmlns="http://www.w3.org/2000/svg">
<path d="M180.216 388.744L484.755 388.744C491.256 388.744 496.527 383.474 496.527 376.972L496.527 18.4094C496.527 11.908 491.256 6.63757 484.755 6.63757L180.216 6.63757C173.714 6.63757 168.444 11.908 168.444 18.4094L168.444 376.972C168.444 383.474 173.714 388.744 180.216 388.744Z" fill="white"/>
<path d="M167.72 376.974V18.4094C167.724 15.0965 169.041 11.9205 171.384 9.578C173.727 7.23553 176.903 5.91795 180.216 5.91431H484.755C488.068 5.91795 491.244 7.23553 493.587 9.578C495.929 11.9205 497.247 15.0965 497.251 18.4094V376.974C497.247 380.287 495.929 383.463 493.587 385.806C491.244 388.148 488.068 389.466 484.755 389.47H180.216C176.903 389.466 173.727 388.148 171.384 385.806C169.041 383.463 167.724 380.287 167.72 376.974ZM180.216 7.36298C177.287 7.36623 174.479 8.53115 172.407 10.6022C170.336 12.6732 169.171 15.4811 169.168 18.4101V376.974C169.171 379.903 170.336 382.711 172.407 384.782C174.479 386.853 177.287 388.018 180.216 388.022H484.755C487.684 388.018 490.492 386.853 492.563 384.782C494.634 382.711 495.799 379.903 495.803 376.974V18.4094C495.799 15.4804 494.634 12.6724 492.563 10.6014C490.492 8.53042 487.684 7.36551 484.755 7.36225L180.216 7.36298Z" fill="#292A2E"/>
<path d="M242.531 557.274C242.427 557.274 242.324 557.251 242.23 557.208C242.136 557.165 242.051 557.102 241.983 557.024C241.916 556.945 241.865 556.853 241.836 556.753C241.807 556.654 241.799 556.549 241.814 556.446L266.025 389.365C266.037 389.269 266.068 389.177 266.117 389.094C266.165 389.011 266.229 388.938 266.305 388.88C266.382 388.822 266.469 388.779 266.562 388.755C266.655 388.731 266.752 388.726 266.847 388.74C266.943 388.753 267.034 388.786 267.116 388.836C267.199 388.885 267.27 388.951 267.327 389.028C267.384 389.106 267.425 389.194 267.447 389.287C267.47 389.381 267.474 389.478 267.458 389.572L243.243 556.654C243.218 556.825 243.133 556.982 243.002 557.096C242.871 557.21 242.704 557.273 242.531 557.274Z" fill="#292A2E"/>
<path d="M422.442 557.274C422.268 557.273 422.1 557.211 421.969 557.097C421.838 556.983 421.752 556.826 421.727 556.654L397.515 389.571C397.491 389.383 397.542 389.193 397.657 389.041C397.772 388.89 397.941 388.79 398.129 388.763C398.317 388.736 398.508 388.783 398.661 388.896C398.814 389.008 398.917 389.176 398.948 389.363L423.162 556.447C423.177 556.55 423.17 556.654 423.141 556.754C423.111 556.854 423.061 556.946 422.993 557.024C422.925 557.103 422.841 557.166 422.747 557.209C422.652 557.252 422.549 557.274 422.446 557.274L422.442 557.274Z" fill="#292A2E"/>
<g opacity="0.1">
<path d="M201.568 190.813L463.404 190.813C468.007 190.813 471.738 187.082 471.738 182.479V42.585C471.738 37.982 468.007 34.2506 463.404 34.2506L201.568 34.2506C196.965 34.2506 193.233 37.982 193.233 42.585V182.479C193.233 187.082 196.965 190.813 201.568 190.813Z" fill="#367CFF"/>
</g>
<g opacity="0.1">
<path d="M192.939 352.583V217.823C192.941 215.51 193.861 213.293 195.496 211.658C197.132 210.023 199.349 209.104 201.661 209.101H462.586C464.898 209.104 467.114 210.024 468.749 211.659C470.384 213.294 471.304 215.511 471.307 217.823V352.583C471.304 354.896 470.384 357.113 468.749 358.748C467.114 360.383 464.897 361.303 462.584 361.306H201.661C199.349 361.303 197.131 360.383 195.496 358.748C193.861 357.113 192.941 354.896 192.939 352.583Z" fill="#367CFF"/>
</g>
<path d="M437.945 341.415H443.124C443.903 341.415 444.535 340.784 444.535 340.004V241.08C444.535 240.3 443.903 239.669 443.124 239.669H437.945C437.166 239.669 436.534 240.3 436.534 241.08V340.004C436.534 340.784 437.166 341.415 437.945 341.415Z" fill="white"/>
<path opacity="0.3" d="M445.946 341.415H451.125C451.904 341.415 452.536 340.784 452.536 340.004V273.036C452.536 272.257 451.904 271.625 451.125 271.625H445.946C445.167 271.625 444.535 272.257 444.535 273.036V340.004C444.535 340.784 445.167 341.415 445.946 341.415Z" fill="#367CFF"/>
<path d="M373.917 341.415H379.095C379.875 341.415 380.506 340.783 380.506 340.004V329.952C380.506 329.173 379.875 328.541 379.095 328.541H373.917C373.138 328.541 372.506 329.173 372.506 329.952V340.004C372.506 340.783 373.138 341.415 373.917 341.415Z" fill="white"/>
<path opacity="0.3" d="M381.918 341.415H387.096C387.875 341.415 388.507 340.783 388.507 340.004V267.29C388.507 266.511 387.875 265.879 387.096 265.879H381.918C381.138 265.879 380.506 266.511 380.506 267.29V340.004C380.506 340.783 381.138 341.415 381.918 341.415Z" fill="#367CFF"/>
<path d="M405.931 341.415H411.11C411.889 341.415 412.521 340.783 412.521 340.004V281.924C412.521 281.145 411.889 280.513 411.11 280.513H405.931C405.152 280.513 404.52 281.145 404.52 281.924V340.004C404.52 340.783 405.152 341.415 405.931 341.415Z" fill="white"/>
<path opacity="0.3" d="M413.932 341.415H419.111C419.89 341.415 420.522 340.784 420.522 340.004V302.967C420.522 302.188 419.89 301.556 419.111 301.556H413.932C413.153 301.556 412.521 302.188 412.521 302.967V340.004C412.521 340.784 413.153 341.415 413.932 341.415Z" fill="#367CFF"/>
<path d="M277.874 341.415H283.052C283.832 341.415 284.463 340.784 284.463 340.004V260.757C284.463 259.978 283.832 259.346 283.052 259.346H277.874C277.095 259.346 276.463 259.978 276.463 260.757V340.004C276.463 340.784 277.095 341.415 277.874 341.415Z" fill="white"/>
<path opacity="0.3" d="M285.875 341.416H291.054C291.833 341.416 292.465 340.784 292.465 340.005V290.973C292.465 290.194 291.833 289.562 291.054 289.562H285.875C285.096 289.562 284.464 290.194 284.464 290.973V340.005C284.464 340.784 285.096 341.416 285.875 341.416Z" fill="#367CFF"/>
<path d="M341.903 341.415H347.081C347.861 341.415 348.492 340.783 348.492 340.004V273.559C348.492 272.78 347.861 272.148 347.081 272.148H341.903C341.123 272.148 340.492 272.78 340.492 273.559V340.004C340.492 340.783 341.123 341.415 341.903 341.415Z" fill="white"/>
<path opacity="0.3" d="M349.903 341.415H355.082C355.861 341.415 356.493 340.783 356.493 340.004V281.401C356.493 280.622 355.861 279.99 355.082 279.99H349.903C349.124 279.99 348.492 280.622 348.492 281.401V340.004C348.492 340.783 349.124 341.415 349.903 341.415Z" fill="#367CFF"/>
<path d="M309.889 341.415H315.067C315.847 341.415 316.478 340.784 316.478 340.004V241.08C316.478 240.3 315.847 239.669 315.067 239.669H309.889C309.109 239.669 308.478 240.3 308.478 241.08V340.004C308.478 340.784 309.109 341.415 309.889 341.415Z" fill="white"/>
<path opacity="0.3" d="M317.889 341.415H323.068C323.847 341.415 324.479 340.784 324.479 340.004V245.981C324.479 245.202 323.847 244.57 323.068 244.57H317.889C317.11 244.57 316.478 245.202 316.478 245.981V340.004C316.478 340.784 317.11 341.415 317.889 341.415Z" fill="#367CFF"/>
<path d="M245.86 341.415H251.039C251.818 341.415 252.45 340.784 252.45 340.004V241.08C252.45 240.3 251.818 239.669 251.039 239.669H245.86C245.081 239.669 244.449 240.3 244.449 241.08V340.004C244.449 340.784 245.081 341.415 245.86 341.415Z" fill="white"/>
<path opacity="0.3" d="M253.861 341.415H259.04C259.819 341.415 260.451 340.784 260.451 340.004V273.036C260.451 272.257 259.819 271.625 259.04 271.625H253.861C253.082 271.625 252.45 272.257 252.45 273.036V340.004C252.45 340.784 253.082 341.415 253.861 341.415Z" fill="#367CFF"/>
<path d="M213.846 341.415H219.025C219.804 341.415 220.436 340.783 220.436 340.004V281.924C220.436 281.145 219.804 280.513 219.025 280.513H213.846C213.067 280.513 212.435 281.145 212.435 281.924V340.004C212.435 340.783 213.067 341.415 213.846 341.415Z" fill="white"/>
<path opacity="0.3" d="M221.847 341.415H227.026C227.805 341.415 228.437 340.784 228.437 340.004V302.967C228.437 302.188 227.805 301.556 227.026 301.556H221.847C221.068 301.556 220.436 302.188 220.436 302.967V340.004C220.436 340.784 221.068 341.415 221.847 341.415Z" fill="#367CFF"/>
<path opacity="0.2" d="M452.608 84.4951V171.103C452.608 171.471 452.462 171.824 452.201 172.085C451.941 172.345 451.588 172.492 451.219 172.492H213.752C213.383 172.492 213.03 172.345 212.77 172.085C212.509 171.824 212.363 171.471 212.363 171.103V125.125C212.363 124.881 212.427 124.641 212.549 124.43C212.671 124.219 212.846 124.043 213.057 123.921L255.101 99.6464C255.316 99.5228 255.559 99.4586 255.806 99.4605C256.054 99.4624 256.296 99.5303 256.509 99.6573L275.436 110.969C275.672 111.11 275.946 111.178 276.221 111.164C276.497 111.149 276.761 111.053 276.982 110.888L296.856 95.9694C297.058 95.817 297.299 95.7229 297.551 95.6974C297.803 95.6719 298.057 95.7159 298.286 95.8246L322.812 107.489C323.074 107.614 323.368 107.654 323.654 107.602C323.939 107.551 324.202 107.412 324.404 107.204L351.634 79.2463C351.869 79.0044 352.184 78.8562 352.52 78.8296C352.856 78.8029 353.191 78.8996 353.461 79.1015L371.142 92.3408C371.398 92.5329 371.713 92.6305 372.032 92.6173C372.352 92.6042 372.658 92.4809 372.897 92.2684L384.465 81.988C384.699 81.7804 384.995 81.6575 385.307 81.6393C385.618 81.621 385.927 81.7084 386.183 81.8874L402.601 93.3479C402.838 93.5124 403.119 93.5996 403.407 93.5975C403.694 93.5954 403.974 93.5042 404.208 93.3363L432.596 72.905C432.815 72.7477 433.074 72.6571 433.343 72.6443C433.612 72.6314 433.879 72.6969 434.111 72.8326L451.921 83.2933C452.13 83.416 452.304 83.5916 452.425 83.8025C452.545 84.0134 452.608 84.2522 452.608 84.4951Z" fill="#367CFF"/>
<path opacity="0.61" d="M213.162 123.931C213.283 123.931 213.403 123.899 213.508 123.837L255.682 99.4872L275.761 111.487C275.88 111.558 276.016 111.592 276.154 111.584C276.292 111.577 276.424 111.529 276.535 111.447L297.489 95.716L323.292 107.988C323.424 108.05 323.571 108.069 323.714 108.043C323.857 108.017 323.988 107.947 324.089 107.843L352.435 78.7352L371.511 93.0192C371.639 93.1152 371.796 93.1641 371.956 93.1575C372.116 93.1509 372.269 93.0892 372.389 92.983L385.215 81.5819L402.891 93.9242C403.009 94.0064 403.15 94.05 403.293 94.0489C403.437 94.0479 403.577 94.0023 403.694 93.9184L433.25 72.6509L451.458 83.344C451.537 83.3903 451.624 83.4206 451.714 83.4332C451.804 83.4459 451.896 83.4406 451.985 83.4177C452.073 83.3948 452.156 83.3548 452.229 83.2998C452.302 83.2449 452.363 83.1761 452.409 83.0975C452.455 83.0189 452.486 82.9319 452.498 82.8416C452.511 82.7512 452.506 82.6593 452.483 82.571C452.46 82.4827 452.42 82.3998 452.365 82.3269C452.31 82.2541 452.241 82.1928 452.163 82.1466L433.564 71.2233C433.447 71.1552 433.314 71.1223 433.179 71.1286C433.045 71.1349 432.915 71.1801 432.806 71.2587L403.282 92.503L385.56 80.1325C385.432 80.0429 385.278 79.999 385.122 80.0081C384.966 80.0172 384.818 80.0786 384.701 80.1824L371.887 91.5705L352.774 77.2605C352.639 77.1594 352.472 77.1109 352.304 77.1243C352.135 77.1376 351.978 77.2118 351.86 77.3329L323.436 106.522L297.702 94.2825C297.588 94.2281 297.46 94.2061 297.334 94.2188C297.208 94.2316 297.088 94.2787 296.987 94.3549L276.068 110.058L256.04 98.0878C255.934 98.0244 255.813 97.9906 255.689 97.9897C255.565 97.9888 255.444 98.0209 255.337 98.0827L212.809 122.636C212.677 122.713 212.573 122.831 212.515 122.972C212.456 123.114 212.446 123.27 212.486 123.418C212.525 123.566 212.613 123.696 212.734 123.789C212.856 123.883 213.004 123.933 213.157 123.933L213.162 123.931Z" fill="#367CFF"/>
<path d="M58.7582 525.079C58.7582 525.079 62.0269 542.02 77.8914 542.967C93.7558 543.914 90.3155 556.55 90.3155 556.55H29.6907V526.261L58.7582 525.079Z" fill="#367CFF"/>
<path d="M25.5793 215.993C25.5793 215.993 30.1128 210.899 30.073 222.453C29.9231 265.551 27.0149 535.893 27.0149 535.893L66.8523 535.558L90.9845 214.242L25.5793 215.993Z" fill="#262626"/>
<path d="M126.783 525.079C126.783 525.079 130.052 542.02 145.917 542.967C161.781 543.914 158.341 556.55 158.341 556.55H97.7159V526.261L126.783 525.079Z" fill="#367CFF"/>
<path d="M134.489 219.339C134.489 219.339 139.465 366.636 138.948 373.835L134.269 534.775L95.0901 535.499L88.772 368.012C88.772 368.012 84.6309 321.811 73.4679 278.91C67.7568 256.892 64.3197 234.346 63.2107 211.626L134.489 219.339Z" fill="#262626"/>
<path d="M82.8028 323.773L86.0694 273.812C86.0694 273.812 89.425 294.582 89.425 312.484C89.425 321.235 87.623 355.881 87.623 355.881L82.8028 323.773Z" fill="#0A0A0A"/>
<path d="M25.1463 215.988L25.016 215.995C25.016 215.995 25.1101 213.483 25.1463 215.988Z" fill="#333333"/>
<path d="M25.3099 215.988L25.1796 215.996C25.1796 215.996 25.2737 213.483 25.3099 215.988Z" fill="#333333"/>
<path d="M243.607 96.4342C243.367 95.9589 242.985 95.5699 242.515 95.3209C242.044 95.0719 241.508 94.9752 240.98 95.0441C240.985 95.0123 240.982 94.9798 240.971 94.9495C240.96 94.9192 240.942 94.892 240.919 94.8701C240.895 94.8483 240.867 94.8326 240.836 94.8243C240.805 94.816 240.772 94.8154 240.741 94.8226L242.522 93.5462C243.055 93.1814 243.438 92.6357 243.6 92.0102C243.762 91.3846 243.692 90.7215 243.403 90.1436C243.1 89.5817 242.598 89.1527 241.996 88.9398C241.394 88.727 240.735 88.7455 240.145 88.9917C240.15 88.9671 240.132 88.9425 240.129 88.9193L240.861 88.3944C241.361 88.0486 241.727 87.5404 241.896 86.9558C242.065 86.3713 242.028 85.7463 241.789 85.1865C241.632 84.8386 241.4 84.5298 241.109 84.2825C240.818 84.0351 240.476 83.8554 240.108 83.7562C239.739 83.6571 239.353 83.6409 238.978 83.709C238.602 83.777 238.246 83.9276 237.936 84.1498L236.247 85.361C236.242 85.3508 236.247 85.3393 236.24 85.3299C236.234 85.3204 236.215 85.3168 236.206 85.3067C236.594 84.8705 236.822 84.3153 236.852 83.7324C236.883 83.1495 236.715 82.5734 236.375 82.0988C235.579 80.8159 233.738 81.078 232.645 81.8606L222.703 88.7282L224.48 85.736C224.838 85.1605 224.964 84.4704 224.833 83.8053C224.702 83.1403 224.323 82.55 223.773 82.1538C223.482 81.959 223.154 81.8256 222.81 81.7616C222.466 81.6976 222.112 81.7045 221.771 81.7817C221.429 81.8589 221.107 82.005 220.824 82.2108C220.541 82.4167 220.303 82.6781 220.124 82.9791L210.423 99.3141C209.284 101.23 208.938 103.515 209.458 105.682C209.977 107.85 211.321 109.729 213.204 110.922C215.388 112.305 217.935 113.004 220.519 112.93C223.103 112.855 225.606 112.011 227.707 110.505L242.721 99.7442C243.22 99.373 243.579 98.8442 243.74 98.2433C243.9 97.6425 243.854 97.005 243.607 96.4342Z" fill="#E98862"/>
<g opacity="0.25">
<path d="M226.409 92.1461C226.446 92.1962 226.501 92.23 226.562 92.2402C226.623 92.2505 226.686 92.2365 226.737 92.2011L236.183 85.6586C236.209 85.6408 236.231 85.6181 236.248 85.5919C236.265 85.5656 236.276 85.5363 236.282 85.5056C236.287 85.4749 236.287 85.4433 236.28 85.4128C236.274 85.3823 236.261 85.3534 236.243 85.3277C236.225 85.302 236.203 85.2801 236.177 85.2632C236.15 85.2463 236.121 85.2347 236.09 85.2291C236.06 85.2236 236.028 85.2241 235.997 85.2307C235.967 85.2373 235.938 85.2498 235.912 85.2676L226.466 91.8102C226.414 91.8461 226.379 91.9012 226.368 91.9632C226.356 92.0252 226.37 92.0891 226.406 92.141L226.409 92.1461Z" fill="#0C0C0C"/>
</g>
<g opacity="0.25">
<path d="M229.18 96.3915C229.216 96.4418 229.271 96.4759 229.332 96.4863C229.394 96.4967 229.456 96.4827 229.507 96.4472L240.05 89.1452C240.101 89.1091 240.137 89.0541 240.148 88.9921C240.159 88.93 240.145 88.8662 240.109 88.8144C240.072 88.7643 240.017 88.7302 239.956 88.719C239.894 88.7079 239.831 88.7205 239.778 88.7543L229.237 96.0563C229.185 96.0922 229.149 96.1473 229.138 96.2093C229.127 96.2713 229.141 96.3352 229.176 96.3871L229.18 96.3915Z" fill="#0C0C0C"/>
</g>
<g opacity="0.25">
<path d="M232.154 101.007C232.191 101.058 232.246 101.091 232.307 101.102C232.368 101.112 232.431 101.098 232.482 101.063L240.891 95.2382C240.943 95.2023 240.978 95.1472 240.99 95.0852C241.001 95.0231 240.987 94.9591 240.951 94.9073C240.915 94.8555 240.86 94.82 240.798 94.8087C240.736 94.7975 240.672 94.8113 240.62 94.8472L232.211 100.672C232.159 100.708 232.123 100.763 232.112 100.825C232.101 100.887 232.115 100.951 232.151 101.002L232.154 101.007Z" fill="#0C0C0C"/>
</g>
<path d="M204.698 95.5915L176.203 144.121L141.435 98.5163L112.56 124.548L161.871 188.411L162.194 188.865C164.168 191.568 166.797 193.725 169.835 195.131C172.872 196.537 176.218 197.146 179.556 196.902C182.894 196.658 186.115 195.567 188.916 193.734C191.716 191.901 194.004 189.385 195.563 186.423L236.082 113.045L204.698 95.5915Z" fill="#367CFF"/>
<path d="M173.41 149.957C173.353 149.957 173.296 149.943 173.245 149.917C173.203 149.895 173.165 149.866 173.134 149.829C173.103 149.793 173.08 149.751 173.065 149.706C173.051 149.661 173.045 149.613 173.049 149.566C173.053 149.518 173.066 149.472 173.087 149.43L175.881 143.957C175.903 143.914 175.933 143.877 175.969 143.846C176.005 143.815 176.047 143.791 176.092 143.777C176.137 143.762 176.185 143.756 176.232 143.76C176.28 143.764 176.326 143.777 176.368 143.799C176.411 143.82 176.448 143.85 176.479 143.886C176.51 143.922 176.534 143.964 176.548 144.01C176.563 144.055 176.568 144.103 176.565 144.15C176.561 144.197 176.548 144.244 176.526 144.286L173.732 149.759C173.702 149.819 173.656 149.869 173.599 149.903C173.542 149.938 173.477 149.957 173.41 149.957Z" fill="#0C0C0C"/>
<path d="M139.429 143.845L138.559 159.173L139.282 159.214L140.151 143.886L139.429 143.845Z" fill="#0C0C0C"/>
<path d="M47.6126 32.9142C47.6126 32.9142 46.2776 49.9754 42.3645 56.1256C31.0995 73.8318 27.6628 93.8569 38.6165 104.467C49.5702 115.077 120.208 116.039 125.835 91.9934C130.575 71.7489 120.932 69.4546 118.773 52.6816C117.797 45.0936 115.053 29.1735 115.053 29.1735" fill="#0A0A0A"/>
<path d="M107.853 88.149C107.731 88.1331 106.378 110.586 80.2942 108.629C62.2369 107.276 55.7986 88.1172 55.3845 88.1172C57.3312 87.7038 60.6101 87.1036 61.4745 86.6403C64.3176 85.1127 67.8361 83.5228 68.7526 78.0011C69.2811 74.8156 68.3849 58.5363 68.6607 55.3168L96.3787 61.5032C95.9914 68.3042 93.2808 84.0702 102.782 86.8604C104.363 87.3215 106.066 87.7465 107.853 88.149Z" fill="#E98862"/>
<path opacity="0.52" d="M96.7676 80.417C96.3335 79.0177 96.0538 77.5752 95.9335 76.1151C95.6286 72.7832 95.6893 69.4278 96.1145 66.1091C90.4808 65.3488 85.1733 63.0234 80.7952 59.3971C80.2805 61.2983 77.4498 69.6052 78.2338 71.4107C79.7151 74.825 86.6768 80.417 96.7676 80.417Z" fill="#0C0C0C"/>
<path d="M93.0934 73.3503C82.1542 74.2813 68.0656 69.7463 65.3058 55.1604L62.8146 41.9993C60.0541 27.4134 65.4774 14.1394 79.2112 11.5403C92.9443 8.94123 105.447 18.8227 108.208 33.4086L109.31 39.2352C110.37 44.8322 112.612 71.6895 93.0934 73.3503Z" fill="#E98862"/>
<path d="M105.396 39.8708C106.347 39.8708 107.117 39.1 107.117 38.1492C107.117 37.1984 106.347 36.4276 105.396 36.4276C104.445 36.4276 103.674 37.1984 103.674 38.1492C103.674 39.1 104.445 39.8708 105.396 39.8708Z" fill="#0C0C0C"/>
<path d="M87.7591 42.2267C88.7099 42.2267 89.4807 41.4559 89.4807 40.5051C89.4807 39.5542 88.7099 38.7834 87.7591 38.7834C86.8083 38.7834 86.0375 39.5542 86.0375 40.5051C86.0375 41.4559 86.8083 42.2267 87.7591 42.2267Z" fill="#0C0C0C"/>
<path d="M97.4379 53.1261H97.4647C98.021 53.0166 98.5709 52.8764 99.1117 52.7062C99.919 52.4463 100.977 52.017 100.839 51.2872C100.682 50.4561 96.7089 41.9205 96.2557 40.9496C96.2161 40.8648 96.1445 40.7992 96.0566 40.7673C95.9687 40.7353 95.8717 40.7396 95.7869 40.7791C95.7021 40.8187 95.6365 40.8903 95.6046 40.9782C95.5726 41.0661 95.5768 41.1631 95.6164 41.2479C97.3112 44.883 100.041 50.8594 100.146 51.419C100.055 51.6782 98.7143 52.1712 97.3337 52.4326C97.243 52.4484 97.1622 52.499 97.1084 52.5737C97.0545 52.6483 97.032 52.741 97.0456 52.832C97.0592 52.923 97.1079 53.0051 97.1812 53.0607C97.2545 53.1163 97.3466 53.1411 97.4379 53.1297V53.1261Z" fill="#0C0C0C"/>
<path d="M95.4043 59.4239C97.6443 59.1329 99.7847 58.3198 101.653 57.05C101.731 56.999 101.786 56.919 101.806 56.8275C101.825 56.736 101.807 56.6405 101.756 56.5621C101.705 56.4836 101.625 56.4286 101.534 56.4092C101.442 56.3898 101.347 56.4076 101.268 56.4585C97.2251 59.0931 93.2077 59.5188 89.6508 57.6893C89.5789 57.6504 89.505 57.6153 89.4293 57.5843C89.3416 57.5534 89.2452 57.5584 89.1611 57.5982C89.077 57.6381 89.0121 57.7095 88.9805 57.797C88.9489 57.8845 88.9531 57.9809 88.9923 58.0653C89.0315 58.1497 89.1024 58.2152 89.1897 58.2475C89.2179 58.2591 89.2621 58.2837 89.3287 58.3199C91.1988 59.2844 93.3143 59.6689 95.4043 59.4239Z" fill="#0C0C0C"/>
<path d="M51.8283 46.5864L64.1359 44.3291C73.4592 40.5564 76.2791 24.4155 76.2791 24.4155C76.2791 24.4155 87.6078 35.4539 115.053 29.177C115.053 29.177 109.551 -9.09727 69.0039 2.02803C55.9296 5.61677 46.5462 18.7916 47.7191 36.3994C48.5343 48.741 51.8283 46.5864 51.8283 46.5864Z" fill="#0A0A0A"/>
<path d="M66.9992 59.4427C62.8262 60.2326 58.5975 56.4078 57.8047 52.2341C57.012 48.0604 59.9629 45.1189 64.1366 44.329L66.8153 46.7182L70.5872 58.7636L66.9992 59.4427Z" fill="#E98862"/>
<path d="M98.7708 33.9705C99.9882 33.1847 101.394 32.7406 102.842 32.6847C103.555 32.6533 104.269 32.7287 104.959 32.9084C105.643 33.0841 106.302 33.3451 106.921 33.6852C107.008 33.7281 107.074 33.8038 107.106 33.8957C107.138 33.9876 107.132 34.0883 107.09 34.1758C107.048 34.2634 106.972 34.3307 106.881 34.3632C106.789 34.3956 106.688 34.3906 106.601 34.3491L106.574 34.3368C106.003 34.056 105.398 33.848 104.775 33.7178C104.158 33.5859 103.525 33.548 102.897 33.6056C101.652 33.7097 100.457 34.1416 99.4325 34.8573L99.3992 34.8812C99.3403 34.924 99.2736 34.9548 99.2029 34.9718C99.1321 34.9888 99.0587 34.9917 98.9869 34.9803C98.915 34.969 98.8461 34.9436 98.784 34.9056C98.722 34.8676 98.668 34.8177 98.6253 34.7589C98.5825 34.7 98.5517 34.6333 98.5347 34.5626C98.5177 34.4918 98.5148 34.4184 98.5261 34.3466C98.5375 34.2747 98.5629 34.2058 98.6009 34.1437C98.6389 34.0817 98.6888 34.0277 98.7476 33.9849L98.7708 33.9705Z" fill="#0C0C0C"/>
<path d="M87.7909 36.5551C86.5773 36.2585 85.3068 36.2878 84.1081 36.6398C83.5019 36.8133 82.9254 37.0774 82.3981 37.4231C81.8635 37.7706 81.3748 38.1841 80.9436 38.6539L80.9241 38.6734C80.8565 38.7411 80.7654 38.7799 80.6698 38.7816C80.5742 38.7834 80.4817 38.7479 80.4118 38.6827C80.3418 38.6175 80.3 38.5276 80.2951 38.4321C80.2902 38.3367 80.3226 38.243 80.3854 38.171C80.8393 37.6302 81.3596 37.1488 81.934 36.7382C82.5123 36.3203 83.1503 35.9921 83.8265 35.7645C85.1971 35.2934 86.6691 35.1993 88.0885 35.4923C88.2325 35.5232 88.3583 35.61 88.4383 35.7337C88.5183 35.8574 88.5458 36.0078 88.5149 36.1518C88.484 36.2958 88.3972 36.4216 88.2735 36.5016C88.1498 36.5816 87.9994 36.6091 87.8554 36.5782L87.8329 36.5732L87.7909 36.5551Z" fill="#0C0C0C"/>
<path d="M95.8807 62.7354C96.2864 62.689 96.6875 62.6084 97.0796 62.4943C97.1247 62.4821 97.167 62.461 97.2039 62.4323C97.2408 62.4036 97.2716 62.3678 97.2945 62.3271C97.3175 62.2864 97.3321 62.2415 97.3375 62.195C97.343 62.1486 97.3391 62.1016 97.3262 62.0566C97.3133 62.0117 97.2916 61.9698 97.2623 61.9333C97.233 61.8969 97.1968 61.8666 97.1558 61.8442C97.1147 61.8219 97.0696 61.808 97.0231 61.8032C96.9766 61.7985 96.9296 61.8031 96.8848 61.8167C94.524 62.4958 93.1817 61.5959 93.126 61.5568C93.0492 61.503 92.9541 61.4819 92.8618 61.4982C92.7695 61.5145 92.6874 61.5668 92.6337 61.6436C92.5799 61.7204 92.5589 61.8155 92.5751 61.9078C92.5914 62.0001 92.6437 62.0822 92.7205 62.1359C93.6732 62.6944 94.7897 62.9062 95.8807 62.7354Z" fill="#0C0C0C"/>
<path d="M64.1663 44.1734L64.0439 43.8324C79.642 38.2325 75.8273 22.9255 75.7875 22.7713L76.1372 22.6801C76.1785 22.8365 80.08 38.4598 64.1663 44.1734Z" fill="#0C0C0C"/>
<path opacity="0.1" d="M86.3692 54.2006C88.1701 54.0068 89.5147 52.7788 89.3726 51.4578C89.2305 50.1367 87.6553 49.2229 85.8545 49.4166C84.0536 49.6104 82.7089 50.8384 82.851 52.1594C82.9932 53.4805 84.5683 54.3943 86.3692 54.2006Z" fill="#0C0C0C"/>
<path opacity="0.1" d="M105.431 49.1472C105.576 50.4662 107.152 51.3785 108.953 51.1873C109.264 51.1536 109.571 51.0878 109.869 50.9911C109.97 49.4216 109.992 47.9106 109.963 46.5112C109.465 46.3809 108.947 46.3446 108.436 46.404C106.635 46.5952 105.291 47.823 105.431 49.1472Z" fill="#0C0C0C"/>
<path d="M140.26 137.58C139.439 147.233 135.442 207.45 134.652 219.34H30.1309C29.5155 208.617 22.4104 161.729 20.0785 140.76C17.8523 120.751 13.4846 110.733 16.686 104.818C21.9174 95.1498 36.213 89.5637 45.9606 88.2439C51.9131 87.4381 60.865 86.8604 60.865 86.8604C60.865 86.8604 61.623 102.194 79.6977 103.048C104.302 104.206 102.659 86.8604 102.781 86.8604C106.767 86.8604 129.538 89.3834 135.108 92.6854C150.289 101.675 142.004 117.126 140.26 137.58Z" fill="#367CFF"/>
<path d="M208.105 144.323L198.03 193.292C197.826 194.287 197.286 195.181 196.502 195.826C195.718 196.47 194.736 196.827 193.721 196.836L124.346 197.426C123.684 197.432 123.029 197.289 122.43 197.009C121.83 196.729 121.301 196.318 120.88 195.807C120.46 195.296 120.159 194.697 120 194.055C119.841 193.412 119.828 192.743 119.961 192.094L130.036 143.125C130.241 142.13 130.781 141.236 131.565 140.592C132.349 139.947 133.33 139.59 134.345 139.582L203.721 138.991C204.383 138.985 205.037 139.128 205.637 139.408C206.237 139.688 206.766 140.099 207.186 140.61C207.607 141.121 207.907 141.72 208.066 142.362C208.225 143.005 208.239 143.675 208.105 144.323Z" fill="#292A2E"/>
<path d="M143.415 179.106C143.452 179.751 143.255 180.388 142.859 180.899C142.464 181.41 141.898 181.761 141.264 181.887L139.129 182.358C139.167 182.37 139.201 182.392 139.229 182.421C139.257 182.45 139.277 182.485 139.288 182.524C139.293 182.569 139.283 182.615 139.259 182.654C139.772 182.799 140.228 183.099 140.563 183.514C140.898 183.93 141.095 184.439 141.127 184.971C141.13 185.592 140.924 186.195 140.541 186.684C140.159 187.172 139.623 187.518 139.02 187.664L120.986 191.668C120.064 191.875 119.122 191.979 118.177 191.979C116.072 191.979 113.999 191.466 112.136 190.486C110.273 189.506 108.677 188.088 107.484 186.354C106.219 184.519 105.72 182.263 106.093 180.066C106.467 177.869 107.682 175.904 109.482 174.589L124.823 163.375C125.161 163.128 125.553 162.966 125.967 162.904L124.555 169.76L124.932 169.674L125.011 169.659L136.776 167.263C138.086 166.973 139.882 167.451 140.113 168.942C140.237 169.513 140.165 170.109 139.907 170.634C139.65 171.158 139.222 171.58 138.694 171.831C138.702 171.838 138.716 171.845 138.716 171.86C138.716 171.874 138.709 171.882 138.709 171.896L140.743 171.447C141.115 171.365 141.501 171.366 141.873 171.45C142.245 171.535 142.593 171.701 142.893 171.936C143.193 172.172 143.437 172.471 143.607 172.812C143.777 173.153 143.87 173.528 143.878 173.909C143.878 174.517 143.667 175.107 143.282 175.578C142.897 176.049 142.36 176.373 141.764 176.493L140.888 176.689C140.881 176.718 140.888 176.747 140.873 176.768C141.512 176.773 142.125 177.015 142.595 177.447C143.065 177.879 143.357 178.471 143.415 179.106Z" fill="#E98862"/>
<g opacity="0.25">
<path d="M126.997 174.272C127.011 174.333 127.048 174.385 127.1 174.419C127.153 174.452 127.216 174.464 127.277 174.452L138.533 172.144C138.565 172.139 138.595 172.127 138.622 172.11C138.649 172.093 138.673 172.07 138.691 172.044C138.709 172.018 138.722 171.988 138.729 171.956C138.735 171.925 138.735 171.892 138.729 171.861C138.722 171.829 138.709 171.799 138.691 171.773C138.673 171.747 138.649 171.724 138.622 171.707C138.595 171.69 138.564 171.678 138.533 171.673C138.501 171.668 138.469 171.67 138.437 171.677L127.181 173.986C127.119 173.999 127.065 174.036 127.03 174.088C126.995 174.141 126.983 174.205 126.996 174.267L126.997 174.272Z" fill="#0C0C0C"/>
</g>
<g opacity="0.25">
<path d="M127.878 179.265C127.892 179.325 127.929 179.378 127.981 179.412C128.033 179.445 128.097 179.457 128.158 179.444L140.72 176.868C140.782 176.856 140.836 176.819 140.871 176.766C140.905 176.714 140.918 176.649 140.905 176.588C140.891 176.527 140.853 176.474 140.801 176.44C140.749 176.405 140.686 176.392 140.624 176.402L128.062 178.979C128 178.992 127.946 179.028 127.911 179.081C127.877 179.134 127.864 179.198 127.877 179.26L127.878 179.265Z" fill="#0C0C0C"/>
</g>
<g opacity="0.25">
<path d="M128.801 184.678C128.815 184.738 128.852 184.791 128.904 184.824C128.957 184.858 129.02 184.87 129.081 184.857L139.101 182.803C139.133 182.798 139.163 182.786 139.191 182.769C139.218 182.752 139.241 182.73 139.259 182.703C139.278 182.677 139.29 182.647 139.297 182.615C139.303 182.584 139.303 182.551 139.297 182.52C139.29 182.488 139.278 182.458 139.259 182.432C139.241 182.406 139.218 182.383 139.19 182.366C139.163 182.349 139.133 182.338 139.101 182.332C139.069 182.327 139.037 182.329 139.006 182.337L128.985 184.392C128.955 184.398 128.926 184.41 128.9 184.428C128.874 184.445 128.852 184.468 128.834 184.494C128.817 184.52 128.805 184.549 128.799 184.579C128.793 184.61 128.794 184.642 128.8 184.672L128.801 184.678Z" fill="#0C0C0C"/>
</g>
<path d="M119.869 198.804L22.0274 216.484C18.9743 216.817 15.8856 216.437 13.0038 215.375C10.122 214.313 7.52551 212.598 5.41804 210.364C3.31056 208.13 1.74946 205.438 0.857234 202.499C-0.0349915 199.561 -0.234064 196.455 0.275637 193.426L13.9725 112.011C14.8471 106.812 17.751 102.174 22.0455 99.116C26.3399 96.0584 31.6731 94.832 36.8718 95.7066C42.0704 96.5812 46.7087 99.4852 49.7663 103.78C52.8239 108.074 54.0503 113.407 53.1757 118.606L43.8364 174.652L115.567 165.646L119.869 198.804Z" fill="#367CFF"/>
<path d="M22.0267 216.846C21.9363 216.846 21.8493 216.812 21.7828 216.751C21.7162 216.69 21.6749 216.606 21.6669 216.516C21.6589 216.426 21.6849 216.337 21.7396 216.265C21.7944 216.193 21.8741 216.144 21.963 216.128L119.466 198.508L115.256 166.048L43.8805 175.011C43.8246 175.019 43.7677 175.013 43.7144 174.994C43.6612 174.976 43.6131 174.944 43.5743 174.904C43.5351 174.863 43.506 174.814 43.4893 174.76C43.4726 174.706 43.4687 174.649 43.478 174.593L49.4146 138.773C49.4223 138.726 49.4392 138.681 49.4643 138.641C49.4894 138.6 49.5223 138.565 49.5609 138.537C49.5996 138.51 49.6433 138.49 49.6896 138.479C49.736 138.468 49.784 138.467 49.8309 138.475C49.8779 138.482 49.9229 138.499 49.9633 138.524C50.0038 138.55 50.0389 138.582 50.0666 138.621C50.0943 138.66 50.1141 138.704 50.1248 138.75C50.1355 138.797 50.137 138.845 50.1291 138.892L44.2715 174.232L115.522 165.284C115.617 165.272 115.713 165.298 115.788 165.357C115.864 165.415 115.914 165.501 115.926 165.596L120.228 198.754C120.24 198.846 120.216 198.94 120.161 199.015C120.106 199.09 120.025 199.141 119.933 199.157L22.0918 216.841C22.0702 216.844 22.0485 216.846 22.0267 216.846Z" fill="#0C0C0C"/>
<path d="M43.779 174.296L37.4852 175.303L37.5998 176.019L43.8935 175.011L43.779 174.296Z" fill="#0C0C0C"/>
<path d="M557.308 557.566H6.78492C6.65051 557.566 6.52161 557.513 6.42657 557.418C6.33153 557.323 6.27814 557.194 6.27814 557.059C6.27814 556.925 6.33153 556.796 6.42657 556.701C6.52161 556.606 6.65051 556.553 6.78492 556.553H557.308C557.375 556.553 557.441 556.566 557.502 556.591C557.564 556.617 557.619 556.654 557.666 556.701C557.714 556.748 557.751 556.804 557.776 556.865C557.802 556.927 557.815 556.993 557.815 557.059C557.815 557.126 557.802 557.192 557.776 557.253C557.751 557.315 557.714 557.371 557.666 557.418C557.619 557.465 557.564 557.502 557.502 557.528C557.441 557.553 557.375 557.566 557.308 557.566Z" fill="#292A2E"/>
<path d="M531.154 479.52C531.076 479.521 530.998 479.505 530.926 479.475C530.854 479.445 530.788 479.401 530.733 479.346C529.895 478.508 528.528 463.124 524.847 417.32C523.34 398.578 521.917 380.876 520.879 370.117C520.806 369.348 520.507 369.259 520.409 369.23C518.987 368.801 514.665 372.209 512.252 375.194C512.152 375.317 512.008 375.396 511.851 375.412C511.694 375.429 511.537 375.382 511.414 375.283C511.292 375.184 511.213 375.04 511.197 374.883C511.18 374.726 511.226 374.569 511.326 374.446C512.918 372.472 518.123 367.299 520.751 368.09C521.146 368.225 521.488 368.485 521.724 368.829C521.96 369.174 522.08 369.585 522.064 370.003C523.103 380.77 524.525 398.477 526.033 417.224C528.27 445.059 530.804 476.59 531.637 478.577C531.701 478.666 531.738 478.771 531.746 478.88C531.754 478.989 531.732 479.098 531.682 479.195C531.632 479.292 531.556 479.373 531.463 479.431C531.37 479.488 531.263 479.518 531.154 479.518V479.52Z" fill="#494949"/>
<path d="M519.349 389.858C529.225 381.942 532.498 369.621 526.66 362.338C520.822 355.055 508.084 355.568 498.209 363.484C488.333 371.4 485.06 383.721 490.898 391.004C496.736 398.287 509.474 397.774 519.349 389.858Z" fill="#0CBC8B"/>
<path opacity="0.2" d="M519.349 389.858C529.225 381.942 532.498 369.621 526.66 362.338C520.822 355.055 508.084 355.568 498.209 363.484C488.333 371.4 485.06 383.721 490.898 391.004C496.736 398.287 509.474 397.774 519.349 389.858Z" fill="white"/>
<path d="M493.667 392.857C493.61 392.857 493.555 392.841 493.507 392.811C493.459 392.781 493.421 392.738 493.397 392.686C493.373 392.635 493.364 392.578 493.371 392.522C493.378 392.466 493.401 392.413 493.438 392.37L521.582 358.431C521.633 358.37 521.705 358.332 521.784 358.324C521.862 358.317 521.941 358.341 522.001 358.392C522.062 358.442 522.1 358.515 522.108 358.593C522.115 358.672 522.091 358.75 522.041 358.811L493.895 392.75C493.867 392.784 493.832 392.811 493.792 392.829C493.753 392.848 493.71 392.857 493.667 392.857Z" fill="white"/>
<path d="M537.292 472.244C537.226 472.245 537.16 472.233 537.097 472.211C537.023 472.186 536.955 472.146 536.897 472.094C536.838 472.042 536.791 471.979 536.757 471.909C536.722 471.838 536.703 471.762 536.698 471.684C536.694 471.606 536.705 471.528 536.731 471.454L547.301 441.051C547.612 440.157 548.142 439.356 548.843 438.72C549.544 438.085 550.393 437.636 551.313 437.414C552.232 437.192 553.193 437.204 554.107 437.45C555.021 437.695 555.858 438.167 556.542 438.82L562.131 444.159C562.245 444.268 562.312 444.418 562.315 444.576C562.319 444.734 562.259 444.887 562.15 445.001C562.041 445.115 561.891 445.181 561.734 445.185C561.576 445.188 561.423 445.129 561.309 445.02L555.72 439.681C555.18 439.165 554.519 438.793 553.797 438.599C553.076 438.405 552.318 438.395 551.592 438.57C550.865 438.746 550.195 439.1 549.642 439.602C549.088 440.104 548.67 440.736 548.424 441.442L537.854 471.848C537.813 471.964 537.737 472.065 537.636 472.136C537.536 472.207 537.416 472.245 537.292 472.244Z" fill="#494949"/>
<path d="M577.748 460.993C585.067 455.2 584.632 442.459 576.777 432.535C568.922 422.612 556.621 419.263 549.302 425.056C541.984 430.849 542.419 443.59 550.274 453.514C558.129 463.438 570.43 466.786 577.748 460.993Z" fill="#0CBC8B"/>
<path d="M526.351 477.582C526.217 477.582 526.087 477.536 525.982 477.454C525.877 477.371 525.803 477.255 525.772 477.125L508.035 402.946C507.914 402.44 507.656 401.977 507.289 401.608C506.922 401.24 506.46 400.979 505.955 400.856C505.45 400.733 504.92 400.751 504.425 400.909C503.93 401.068 503.487 401.359 503.147 401.753L497.678 408.073C497.575 408.192 497.428 408.266 497.271 408.277C497.113 408.288 496.958 408.237 496.839 408.133C496.719 408.03 496.646 407.884 496.635 407.726C496.623 407.569 496.675 407.413 496.778 407.294L502.247 400.974C502.731 400.416 503.359 400.001 504.063 399.776C504.767 399.551 505.519 399.525 506.237 399.7C506.955 399.876 507.611 400.245 508.132 400.769C508.654 401.293 509.02 401.95 509.192 402.669L526.929 476.848C526.948 476.924 526.951 477.003 526.939 477.08C526.927 477.158 526.899 477.232 526.858 477.298C526.817 477.365 526.764 477.423 526.7 477.469C526.637 477.515 526.565 477.548 526.489 477.566C526.444 477.576 526.398 477.582 526.351 477.582Z" fill="#494949"/>
<path d="M519.808 424.555C521.965 412.083 516.257 400.684 507.06 399.093C497.862 397.503 488.658 406.324 486.501 418.795C484.345 431.266 490.052 442.666 499.25 444.256C508.447 445.847 517.651 437.026 519.808 424.555Z" fill="#0CBC8B"/>
<path d="M531.155 479.52C531.13 479.52 531.106 479.519 531.082 479.516C530.926 479.497 530.783 479.416 530.686 479.292C530.589 479.167 530.545 479.01 530.564 478.853L541.894 386.871C542.017 385.869 542.428 384.924 543.075 384.15C543.723 383.375 544.58 382.804 545.545 382.506C546.509 382.207 547.539 382.193 548.511 382.466C549.483 382.738 550.356 383.286 551.024 384.043L563.973 398.709C564.027 398.767 564.068 398.836 564.095 398.91C564.122 398.985 564.134 399.064 564.13 399.143C564.125 399.222 564.106 399.299 564.071 399.371C564.037 399.442 563.989 399.506 563.929 399.558C563.87 399.611 563.801 399.651 563.726 399.676C563.651 399.701 563.571 399.711 563.492 399.706C563.413 399.7 563.336 399.679 563.266 399.643C563.195 399.607 563.132 399.557 563.081 399.497L550.132 384.831C549.615 384.248 548.941 383.826 548.19 383.616C547.439 383.406 546.644 383.417 545.899 383.648C545.154 383.879 544.492 384.319 543.991 384.917C543.49 385.514 543.172 386.243 543.076 387.017L531.747 478.998C531.729 479.142 531.659 479.275 531.55 479.372C531.441 479.468 531.3 479.521 531.155 479.52Z" fill="#494949"/>
<path d="M577.252 406.859C581.77 398.692 576.454 387.104 565.379 380.978C554.304 374.852 541.663 376.507 537.145 384.675C532.627 392.842 537.943 404.429 549.018 410.556C560.093 416.682 572.734 415.027 577.252 406.859Z" fill="#0CBC8B"/>
<path opacity="0.2" d="M577.748 460.993C585.067 455.2 584.632 442.459 576.777 432.535C568.922 422.612 556.621 419.263 549.302 425.056C541.984 430.849 542.419 443.59 550.274 453.514C558.129 463.438 570.43 466.786 577.748 460.993Z" fill="white"/>
<path opacity="0.5" d="M519.808 424.555C521.965 412.083 516.257 400.684 507.06 399.093C497.862 397.503 488.658 406.324 486.501 418.795C484.345 431.266 490.052 442.666 499.25 444.256C508.447 445.847 517.651 437.026 519.808 424.555Z" fill="white"/>
<path opacity="0.5" d="M577.252 406.859C581.77 398.692 576.454 387.104 565.379 380.978C554.304 374.852 541.663 376.507 537.145 384.675C532.627 392.842 537.943 404.429 549.018 410.556C560.093 416.682 572.734 415.027 577.252 406.859Z" fill="white"/>
<path d="M545.644 557.566H516.664L511.861 464.843H550.446L545.644 557.566Z" fill="#292A2E"/>
<path opacity="0.3" d="M545.644 557.566H516.664L511.861 464.843H550.446L545.644 557.566Z" fill="white"/>
<path d="M577.749 461.286C577.703 461.286 577.659 461.276 577.618 461.256C577.577 461.237 577.541 461.208 577.514 461.172L549.067 425.234C549.018 425.172 548.996 425.093 549.005 425.015C549.014 424.936 549.054 424.865 549.116 424.816C549.178 424.767 549.257 424.745 549.335 424.754C549.414 424.763 549.485 424.803 549.534 424.865L577.98 460.802C578.015 460.846 578.037 460.899 578.044 460.954C578.05 461.01 578.04 461.066 578.016 461.117C577.991 461.167 577.953 461.209 577.906 461.239C577.858 461.269 577.803 461.284 577.747 461.284L577.749 461.286Z" fill="white"/>
<path d="M575.36 409.738C575.297 409.739 575.235 409.719 575.184 409.681L538.781 383.101C538.748 383.079 538.72 383.05 538.698 383.016C538.676 382.982 538.661 382.945 538.655 382.905C538.648 382.866 538.649 382.826 538.658 382.787C538.667 382.748 538.684 382.711 538.708 382.679C538.731 382.647 538.761 382.619 538.795 382.599C538.83 382.578 538.868 382.565 538.908 382.56C538.947 382.554 538.987 382.557 539.026 382.567C539.065 382.578 539.101 382.596 539.132 382.621L575.533 409.2C575.584 409.237 575.622 409.289 575.641 409.349C575.661 409.409 575.66 409.473 575.641 409.533C575.621 409.593 575.583 409.645 575.533 409.682C575.482 409.718 575.42 409.738 575.358 409.738H575.36Z" fill="white"/>
<path d="M497.771 443.869C497.745 443.869 497.718 443.866 497.693 443.859C497.618 443.838 497.553 443.789 497.513 443.721C497.474 443.653 497.463 443.573 497.483 443.497L509.071 400.081C509.093 400.006 509.143 399.943 509.211 399.905C509.279 399.866 509.359 399.856 509.434 399.876C509.509 399.896 509.573 399.945 509.613 400.012C509.653 400.079 509.665 400.159 509.646 400.234L498.057 443.647C498.041 443.71 498.004 443.767 497.952 443.807C497.9 443.847 497.836 443.869 497.771 443.869Z" fill="white"/>
</svg>
