<svg width="147" height="147" viewBox="0 0 147 147" fill="none" xmlns="http://www.w3.org/2000/svg">
<g clip-path="url(#clip0_575_729)">
<path d="M73.5 0C66.7529 0 60.2451 0.861328 53.9766 2.58398C47.708 4.30664 41.8701 6.79492 36.4629 10.0488C31.0557 13.3027 26.103 17.1309 21.605 21.5332C17.1069 25.9355 13.2549 30.8882 10.0488 36.3911C6.84277 41.894 4.37842 47.7559 2.65576 53.9766C0.933105 60.1973 0.0478516 66.7051 0 73.5C0 80.2471 0.861328 86.7549 2.58398 93.0234C4.30664 99.292 6.79492 105.13 10.0488 110.537C13.3027 115.944 17.1309 120.897 21.5332 125.395C25.9355 129.893 30.8882 133.745 36.3911 136.951C41.894 140.157 47.7559 142.622 53.9766 144.344C60.1973 146.067 66.7051 146.952 73.5 147C80.2471 147 86.7549 146.139 93.0234 144.416C99.292 142.693 105.13 140.205 110.537 136.951C115.944 133.697 120.897 129.869 125.395 125.467C129.893 121.064 133.745 116.112 136.951 110.609C140.157 105.106 142.622 99.2441 144.344 93.0234C146.067 86.8027 146.952 80.2949 147 73.5C147 66.7529 146.139 60.2451 144.416 53.9766C142.693 47.708 140.205 41.8701 136.951 36.4629C133.697 31.0557 129.869 26.103 125.467 21.605C121.064 17.1069 116.112 13.2549 110.609 10.0488C105.106 6.84277 99.2441 4.37842 93.0234 2.65576C86.8027 0.933105 80.2949 0.0478516 73.5 0ZM65.3892 73.5L40.8413 48.9521L48.9521 40.8413L73.5 65.3892L98.0479 40.8413L106.159 48.9521L81.6108 73.5L106.159 98.0479L98.0479 106.159L73.5 81.6108L48.9521 106.159L40.8413 98.0479L65.3892 73.5Z" fill="#F24E1E"/>
</g>
<defs>
<clipPath id="clip0_575_729">
<rect width="147" height="147" fill="white" transform="matrix(-1 0 0 1 147 0)"/>
</clipPath>
</defs>
</svg>
